americas
1
   -114.551021   8.243424
   -122.961875   -60.216318
   -23.244010   -60.308830
   -28.724720   2.031551
   -44.918410   10.142250
   -61.202580   24.638570
   -34.487890   62.817250
   -6.676794   74.798390
   -5.198412   85.041770
   -180.000000   85.036950
   -180.000000   25.530000
   -162.729536   15.834578
   -148.974697   15.623121
   -114.551021   8.243424
END
2
   180.000000   56.309896
   180.000000   50.021873
   170.903298   50.021873
   170.991189   54.393365
   180.000000   56.309896
END
END
