europe
1
   -25.699988   65.375753
   -21.708627   67.500838
   -16.008461   67.501056
   -9.930832   70.119100
   -9.928369   70.135952
   -11.367988   71.341397
   -3.618578   74.932638
   -2.158668   85.031770
   35.517110   85.031770
   35.517110   81.061950
   35.527096   81.051939
   35.517110   81.000851
   35.517110   80.010000
   35.327384   80.010000
   35.317577   80.001957
   33.496159   70.874689
   31.585791   70.134085
   31.108802   69.970194
   30.841489   69.796363
   30.843923   69.784867
   30.898208   69.744584
   30.901981   69.713039
   30.953904   69.687645
   30.943695   69.664087
   30.961188   69.642275
   30.962351   69.612437
   30.952438   69.573287
   30.924244   69.544162
   30.797539   69.520315
   30.514404   69.530564
   30.413172   69.580896
   30.237502   69.638698
   30.156197   69.656817
   30.149849   69.642646
   30.198046   69.566759
   30.184012   69.529658
   30.129835   69.507874
   30.119670   69.459458
   29.994453   69.402302
   29.942261   69.395211
   29.860859   69.413660
   29.729011   69.380262
   29.698724   69.354150
   29.567248   69.307061
   29.392900   69.312253
   29.299995   69.288954
   29.290595   69.258153
   29.323657   69.230797
   29.298761   69.174937
   29.253488   69.137361
   29.250170   69.106997
   29.042335   69.000965
   28.911665   69.044849
   28.486846   68.923329
   28.479799   68.915714
   28.488736   68.903752
   28.822031   68.874921
   28.723920   68.719129
   28.643937   68.664786
   28.544621   68.614276
   28.540387   68.603105
   28.454141   68.540608
   28.659959   68.196191
   29.334665   68.074695
   30.027326   67.682375
   29.959020   67.522229
   29.659594   67.333747
   29.098360   67.000371
   29.072769   66.950178
   29.068727   66.876892
   29.483865   66.547715
   29.723554   66.280170
   29.932931   66.133572
   30.083985   65.898843
   30.121140   65.794648
   30.154026   65.661960
   29.771853   65.632278
   29.775141   65.619054
   29.881199   65.564088
   29.745873   65.451842
   29.768567   65.334106
   29.648193   65.266684
   29.644304   65.255631
   29.652622   65.248549
   29.889673   65.218159
   29.906144   65.192543
   29.856484   65.156094
   29.853628   65.145552
   29.928787   65.102505
   29.644266   65.052016
   29.654083   64.874547
   29.715942   64.837257
   29.710913   64.826568
   29.718290   64.818188
   30.063396   64.797519
   30.109376   64.764763
   30.065306   64.748679
   30.061751   64.735152
   30.187606   64.635285
   30.021815   64.588160
   30.086691   64.390664
   30.144067   64.358947
   30.228473   64.350302
   30.490772   64.263041
   30.513164   64.219446
   30.489916   64.208082
   30.487871   64.195699
   30.574936   64.125976
   30.539920   64.040967
   30.273505   63.817661
   30.008913   63.760518
   30.002337   63.745789
   30.608914   63.443476
   30.827545   63.404653
   31.248396   63.221672
   31.511308   63.014036
   31.615884   62.910230
   31.482719   62.774186
   31.408534   62.665955
   31.195481   62.439851
   30.968794   62.304845
   30.717791   62.194941
   30.080405   61.758740
   29.347527   61.337656
   29.193414   61.237221
   28.968516   61.147336
   28.837940   61.114372
   28.671565   60.943121
   28.538519   60.937755
   27.883251   60.593002
   27.857202   60.557290
   27.803584   60.535621
   27.748710   60.403006
   27.584554   60.196951
   26.932321   60.126640
   26.450566   60.011268
   26.456347   59.996246
   27.829576   59.619050
   28.111342   59.450794
   28.141718   59.423774
   28.198414   59.401741
   28.213099   59.385825
   28.214249   59.367724
   28.133945   59.286813
   28.067815   59.288607
   27.958467   59.265721
   27.867572   59.156752
   27.815098   59.126451
   27.814287   59.105103
   27.772696   59.031575
   27.754546   59.024004
   27.750817   58.984017
   27.511874   58.743978
   27.575636   58.334228
   27.515700   58.306996
   27.496303   58.225012
   27.604725   58.120206
   27.638674   58.099816
   27.611773   58.054765
   27.621165   58.016379
   27.663317   58.019728
   27.701668   58.003362
   27.701169   57.985746
   27.687262   57.972933
   27.690270   57.955188
   27.737357   57.908631
   27.818552   57.899848
   27.823958   57.891037
   27.819601   57.858938
   27.797975   57.836809
   27.741939   57.822841
   27.634700   57.835715
   27.563833   57.826367
   27.522766   57.775492
   27.550315   57.734470
   27.528853   57.705641
   27.461854   57.702004
   27.391478   57.671803
   27.387724   57.660300
   27.405300   57.635396
   27.409577   57.611285
   27.379555   57.591430
   27.340003   57.578992
   27.334781   57.570031
   27.356784   57.537001
   27.552734   57.552228
   27.580807   57.507420
   27.549036   57.447585
   27.552063   57.435957
   27.674557   57.400571
   27.880649   57.301103
   27.883357   57.244453
   27.831162   57.138108
   27.771595   57.110808
   27.782227   57.084530
   27.746726   57.024206
   27.782985   57.004404
   27.749210   56.914250
   27.695802   56.896786
   27.683778   56.865043
   27.693916   56.858709
   27.846448   56.886479
   27.886043   56.882739
   27.914948   56.835830
   27.980580   56.843027
   27.988136   56.804995
   27.936364   56.757469
   27.934866   56.746345
   28.020668   56.684581
   28.057409   56.604738
   28.151200   56.583561
   28.155198   56.552064
   28.134498   56.524567
   28.207259   56.447736
   28.207818   56.400685
   28.190679   56.375486
   28.254997   56.277620
   28.189492   56.170839
   28.049899   56.106511
   27.991683   56.117354
   27.912545   56.037171
   27.846122   56.033411
   27.808783   55.970112
   27.753247   55.966294
   27.673823   55.923331
   27.647947   55.890494
   27.652558   55.843712
   27.617543   55.773403
   27.365973   55.795484
   27.278931   55.772622
   27.130141   55.834452
   27.097097   55.814132
   27.009071   55.813258
   26.928147   55.770837
   26.878383   55.702738
   26.788429   55.665203
   26.668439   55.690798
   26.640341   55.679950
   26.640411   55.598741
   26.631350   55.564047
   26.536031   55.512619
   26.566449   55.456617
   26.559459   55.389988
   26.482331   55.359581
   26.477852   55.346357
   26.571047   55.326200
   26.666469   55.341359
   26.732968   55.325308
   26.801188   55.324940
   26.835639   55.307742
   26.838718   55.278427
   26.733299   55.239830
   26.731976   55.216082
   26.708541   55.168580
   26.671009   55.155990
   26.617131   55.145193
   26.590417   55.152590
   26.539453   55.141963
   26.514588   55.157265
   26.462717   55.126891
   26.396102   55.133529
   26.358173   55.146389
   26.307786   55.123955
   26.260860   55.118898
   26.246918   55.112009
   26.244716   55.101782
   26.275944   55.076738
   26.210454   54.996020
   26.111135   54.971954
   26.054938   54.932482
   25.977535   54.951477
   25.867490   54.922377
   25.857912   54.899093
   25.775983   54.822061
   25.743665   54.805549
   25.752719   54.766218
   25.751696   54.722135
   25.741040   54.696548
   25.766907   54.569867
   25.684289   54.532582
   25.641535   54.469094
   25.636448   54.422705
   25.596803   54.375280
   25.568047   54.362828
   25.559211   54.339349
   25.565104   54.330667
   25.593827   54.324070
   25.682926   54.325398
   25.714280   54.300764
   25.720561   54.279695
   25.753835   54.271511
   25.791599   54.235064
   25.766944   54.217687
   25.785501   54.195825
   25.796465   54.151163
   25.735909   54.155231
   25.637279   54.122421
   25.551454   54.142140
   25.499290   54.177310
   25.547094   54.206000
   25.510972   54.291728
   25.501177   54.296844
   25.353740   54.262667
   25.222794   54.244490
   25.206056   54.218550
   25.072857   54.130471
   24.999564   54.136501
   24.948925   54.166065
   24.833529   54.131059
   24.797438   54.114243
   24.794266   54.101939
   24.817932   54.079224
   24.838354   54.042502
   24.879546   54.040129
   24.820683   53.995372
   24.742067   53.963573
   24.679257   53.958523
   24.691231   53.995090
   24.678976   54.004307
   24.448576   53.900805
   24.350151   53.892220
   24.175869   53.958117
   24.104688   53.937297
   23.972854   53.918103
   23.935678   53.952744
   23.879631   53.938613
   23.841617   53.953226
   23.813145   53.937101
   23.820927   53.908647
   23.796797   53.897258
   23.772358   53.897072
   23.759406   53.922392
   23.716176   53.933731
   23.606191   53.922349
   23.537343   53.933525
   23.540145   53.877669
   23.567209   53.854625
   23.564203   53.782218
   23.595640   53.751813
   23.673463   53.530801
   23.825482   53.263306
   23.865600   53.243791
   23.879334   53.207907
   23.932425   53.164386
   23.896524   53.083816
   23.939119   53.031694
   23.961397   52.962702
   23.933059   52.922235
   23.954648   52.714404
   23.899884   52.665859
   23.762596   52.599904
   23.592584   52.578736
   23.443283   52.515569
   23.227569   52.318885
   23.210180   52.293018
   23.215860   52.250596
   23.224470   52.242102
   23.370037   52.223190
   23.427584   52.192696
   23.502884   52.194649
   23.531782   52.149430
   23.625193   52.122878
   23.665920   52.082433
   23.704507   51.990512
   23.644256   51.914806
   23.653557   51.891630
   23.630677   51.844574
   23.656346   51.796458
   23.640211   51.767530
   23.563121   51.734820
   23.576799   51.701338
   23.560865   51.608490
   23.591864   51.550894
   23.679280   51.495331
   23.718157   51.422669
   23.699441   51.359955
   23.669125   51.326686
   23.669707   51.315465
   23.701412   51.305759
   23.758886   51.227524
   23.880217   51.161533
   23.879909   51.110167
   23.924009   51.083601
   23.942780   51.027539
   24.010952   50.940320
   24.150917   50.883988
   24.161005   50.863874
   24.103746   50.820792
   24.005612   50.823605
   23.987542   50.804429
   23.992642   50.794290
   24.036269   50.775743
   24.041483   50.737925
   24.084131   50.730469
   24.113607   50.639759
   24.105620   50.554743
   24.045390   50.433548
   24.003055   50.397442
   23.731382   50.370775
   23.696273   50.319657
   23.296030   50.085711
   22.984519   49.825325
   22.971929   49.792688
   22.809214   49.674499
   22.674560   49.525416
   22.711759   49.500741
   22.761217   49.367048
   22.753216   49.199715
   22.839401   49.129898
   22.903786   49.105113
   22.888791   49.061664
   22.906495   49.003438
   22.848862   48.986432
   22.771677   49.034060
   22.674113   49.024871
   22.589126   49.077930
   22.570249   49.076605
   22.549629   49.003970
   22.490461   48.984595
   22.437189   48.919545
   22.424920   48.881359
   22.389929   48.861982
   22.392398   48.798522
   22.353681   48.684698
   22.256957   48.644027
   22.243772   48.623939
   22.194669   48.604522
   22.165530   48.563587
   22.147470   48.418279
   22.207150   48.428958
   22.268585   48.413012
   22.259908   48.387944
   22.265332   48.369838
   22.324211   48.356010
   22.350316   48.276560
   22.379924   48.246681
   22.435906   48.255193
   22.457271   48.246943
   22.491588   48.257466
   22.524879   48.238493
   22.575011   48.197552
   22.604018   48.143747
   22.610243   48.109294
   22.675148   48.096369
   22.748221   48.125179
   22.823234   48.124148
   22.837186   48.095487
   22.887950   48.055365
   22.888289   48.029084
   22.858391   47.994298
   22.862036   47.984823
   22.878432   47.977864
   22.901248   47.987661
   22.913749   48.039178
   23.066427   48.037549
   23.094389   48.101352
   23.151373   48.140479
   23.278114   48.122209
   23.319909   48.069371
   23.473589   48.001850
   23.533144   48.044437
   23.810554   48.009780
   23.862978   47.939568
   23.933797   47.950947
   23.942819   47.961989
   23.972512   47.970606
   24.009307   47.969360
   24.100850   47.938018
   24.115343   47.918371
   24.199801   47.917702
   24.314908   47.928082
   24.429472   47.974060
   24.570578   47.976350
   24.632024   47.954511
   24.710346   47.858117
   24.830462   47.830428
   24.902121   47.735429
   25.098921   47.761356
   25.230796   47.899759
   25.308798   47.917428
   26.181143   48.008222
   26.208929   48.053291
   26.262690   48.087767
   26.327027   48.186451
   26.375432   48.202701
   26.436916   48.206811
   26.459544   48.217336
   26.549537   48.228713
   26.609463   48.257515
   26.612337   48.273598
   26.638569   48.291958
   26.678310   48.359665
   26.690975   48.365028
   26.758913   48.324521
   26.782637   48.300196
   26.810561   48.298659
   26.817483   48.337122
   26.762187   48.352952
   26.705720   48.406636
   26.724244   48.413465
   26.871357   48.422806
   26.902774   48.398277
   26.904988   48.381799
   26.960608   48.367931
   27.029415   48.392183
   27.030266   48.403238
   27.010242   48.426000
   27.084725   48.436477
   27.126884   48.382157
   27.193740   48.397059
   27.278563   48.378503
   27.316658   48.445358
   27.355438   48.452536
   27.376549   48.442631
   27.386583   48.414730
   27.443309   48.417206
   27.463079   48.449690
   27.582213   48.493276
   27.608454   48.486457
   27.598912   48.470588
   27.603170   48.460369
   27.657992   48.443246
   27.754039   48.460160
   27.791626   48.446731
   27.825220   48.420233
   27.875571   48.406409
   27.889276   48.370170
   27.959383   48.329106
   28.047749   48.328170
   28.077923   48.319739
   28.098546   48.295637
   28.085358   48.251011
   28.095999   48.236944
   28.131333   48.247344
   28.141317   48.267416
   28.190153   48.255829
   28.188697   48.221090
   28.208772   48.208033
   28.303013   48.243527
   28.321367   48.236788
   28.343272   48.248839
   28.361371   48.243871
   28.373201   48.207414
   28.365618   48.178849
   28.320888   48.164899
   28.310657   48.153765
   28.310944   48.141776
   28.339704   48.136088
   28.357269   48.144596
   28.369403   48.167313
   28.367093   48.177608
   28.413818   48.179580
   28.438473   48.171032
   28.442648   48.141695
   28.427561   48.122069
   28.465588   48.085070
   28.477203   48.089901
   28.504038   48.153362
   28.576810   48.185189
   28.724623   48.132548
   28.753621   48.141909
   28.862617   48.129310
   28.853987   48.036860
   28.904851   48.012771
   28.926304   47.969470
   28.961160   47.981518
   29.051392   47.947178
   29.088547   47.986349
   29.125442   47.996231
   29.180361   47.996579
   29.202812   47.904628
   29.287809   47.891941
   29.275123   47.875147
   29.225754   47.848941
   29.206307   47.814913
   29.220367   47.802015
   29.247241   47.813366
   29.281464   47.804153
   29.251262   47.750066
   29.213442   47.720262
   29.235469   47.685376
   29.240098   47.633704
   29.185514   47.567969
   29.134798   47.555859
   29.130698   47.541060
   29.152782   47.513085
   29.192040   47.523675
   29.200499   47.441520
   29.241143   47.463828
   29.321644   47.450948
   29.393910   47.380334
   29.402321   47.353829
   29.400863   47.312468
   29.407368   47.304597
   29.472707   47.313980
   29.484221   47.363698
   29.577761   47.371488
   29.601786   47.254310
   29.564559   47.250685
   29.557396   47.240404
   29.585656   47.134280
   29.530877   47.128478
   29.523870   47.117891
   29.533452   47.094184
   29.615612   47.102197
   29.633207   47.045101
   29.606824   46.971903
   29.734141   46.930091
   29.755177   46.872724
   29.886587   46.889048
   29.957992   46.845160
   29.984597   46.820202
   29.960595   46.792632
   29.980986   46.754448
   29.971988   46.721736
   29.978587   46.684543
   29.953999   46.645113
   29.977556   46.590722
   29.954083   46.551342
   30.192467   46.419400
   30.096871   46.369213
   30.056275   46.392939
   29.894141   46.348603
   29.795618   46.384839
   29.774769   46.438281
   29.764202   46.443630
   29.675863   46.409386
   29.682986   46.356890
   29.602662   46.349554
   29.575207   46.359023
   29.489369   46.425558
   29.447863   46.485923
   29.395291   46.416340
   29.361589   46.476369
   29.348806   46.479564
   29.321065   46.446785
   29.329706   46.410888
   29.274588   46.394635
   29.239428   46.372053
   29.203043   46.383898
   29.214642   46.508929
   29.046788   46.503266
   29.030331   46.461291
   28.955794   46.455234
   28.947643   46.446666
   29.009726   46.316352
   28.967836   46.269628
   28.966879   46.259382
   29.073580   46.194328
   28.965522   46.098052
   28.967513   46.086435
   29.011105   46.051547
   28.985013   46.000550
   28.789754   45.969110
   28.791378   45.829050
   28.710404   45.815506
   28.704948   45.804865
   28.715494   45.776629
   28.609472   45.759827
   28.594311   45.724891
   28.522875   45.716262
   28.548647   45.576809
   28.500564   45.563951
   28.522894   45.495290
   28.416492   45.481334
   28.411471   45.511865
   28.307915   45.543150
   28.260288   45.512809
   28.232621   45.480664
   28.236802   45.468843
   28.281553   45.451812
   28.296902   45.397735
   28.349771   45.327304
   28.694952   45.236843
   28.777317   45.334280
   28.813018   45.342477
   28.843625   45.322894
   28.871377   45.320519
   28.927948   45.290877
   28.954129   45.331140
   29.243550   45.441579
   29.279920   45.431251
   29.322173   45.452407
   29.433399   45.449280
   29.553925   45.413008
   29.609936   45.387485
   29.672845   45.337824
   29.712729   45.221300
   29.960976   45.192127
   30.278941   45.006648
   28.912053   43.757223
   28.920170   43.742954
   29.188175   43.744359
   28.663941   41.975202
   27.980588   41.975030
   27.913092   41.964182
   27.866164   41.987996
   27.839188   41.979218
   27.845588   41.955690
   27.839032   41.940000
   27.812470   41.933970
   27.713428   41.965709
   27.601966   41.929874
   27.578043   41.898852
   27.559854   41.896512
   27.509202   41.943221
   27.442365   41.960291
   27.387339   42.000170
   27.361020   42.045728
   27.331796   42.052524
   27.285932   42.086362
   27.240377   42.097314
   27.202835   42.047263
   27.068798   42.083226
   27.037124   42.078199
   27.032876   42.061153
   26.962845   41.987321
   26.866706   41.982994
   26.841917   41.963834
   26.794346   41.978107
   26.750877   41.954493
   26.631532   41.967952
   26.574005   41.929527
   26.573637   41.918661
   26.588787   41.904186
   26.583300   41.871095
   26.539184   41.820983
   26.376930   41.817185
   26.338818   41.762190
   26.335057   41.741358
   26.363975   41.713341
   26.398725   41.695662
   26.451634   41.685908
   26.470633   41.671887
   26.494462   41.676036
   26.497677   41.649274
   26.531862   41.623643
   26.596320   41.610689
   26.606357   41.489800
   26.638250   41.385600
   26.628269   41.341768
   26.590177   41.319473
   26.570184   41.321280
   26.548770   41.336282
   26.523551   41.335601
   26.461712   41.281476
   26.394482   41.249308
   26.354696   41.245796
   26.332570   41.218696
   26.324706   41.189021
   26.338580   41.143647
   26.336395   41.096917
   26.369366   41.018889
   26.358257   40.996157
   26.363367   40.947956
   26.295254   40.892882
   26.252080   40.880844
   26.223321   40.834336
   26.126294   40.742100
   26.077354   40.727189
   25.951285   40.666696
   26.003247   40.408277
   25.532661   40.206718
   25.526614   40.198087
   25.568484   40.084641
   25.942389   39.892852
   25.996829   39.428270
   26.462316   39.446639
   26.493519   39.420274
   26.515333   39.299389
   26.740706   39.085296
   26.681761   38.810669
   26.259731   38.718295
   26.369914   38.491224
   26.291169   38.434501
   26.190383   38.277075
   26.242616   38.171373
   27.156820   37.871590
   27.210124   37.724879
   27.014021   37.687044
   26.991287   37.652186
   27.122728   37.511612
   27.237837   37.264219
   27.204503   37.172507
   27.188608   37.060665
   27.157323   37.019333
   27.157580   37.008434
   27.230734   36.949028
   27.385477   36.950428
   27.509061   36.886208
   27.405384   36.793348
   27.284791   36.717063
   27.286696   36.706018
   27.393202   36.595229
   27.641234   36.610668
   27.779624   36.717409
   27.925171   36.716309
   27.977987   36.502678
   28.199111   36.585708
   28.322957   36.560101
   29.249437   35.994872
   29.259488   35.996738
   29.481334   36.191298
   29.546162   36.180839
   29.620538   36.180199
   29.620214   36.150595
   29.642800   36.134660
   29.656813   36.113125
   25.959728   34.591123
   23.307843   34.630878
   20.698250   36.831288
   19.962051   37.987699
   18.970655   39.876017
   19.191362   40.050128
   19.190777   40.060999
   19.125995   40.143890
   17.414059   38.370722
   15.507175   36.309551
   14.165773   36.336966
   14.171034   36.320684
   14.392307   36.290811
   14.856088   35.988074
   14.840009   35.724607
   14.503059   35.519863
   14.000011   35.751707
   14.000012   36.267904
   14.070814   36.325863
   14.073366   36.335740
   14.063994   36.342951
   13.840958   36.347930
   13.233873   35.076392
   11.975589   35.145362
   11.597273   36.336822
   11.596647   37.856254
   9.923771   37.838073
   7.802638   38.729327
   7.718465   41.336748
   8.259275   41.333097
   8.268884   41.340103
   8.265779   41.350750
   4.381668   42.177305
   4.371930   42.164531
   5.098511   39.649276
   -1.355880   36.474493
   -1.818560   35.898239
   -2.159496   35.779732
   -2.911881   35.287751
   -2.929861   35.269179
   -2.948901   35.263989
   -2.972394   35.285685
   -2.964739   35.313364
   -2.914820   35.355364
   -2.922746   35.464478
   -2.932768   35.469862
   -2.974410   35.460923
   -3.130922   35.647789
   -5.010942   35.735522
   -5.254582   35.763243
   -5.341515   35.866908
   -5.373393   35.879968
   -5.403962   35.939113
   -5.630666   35.915400
   -7.353405   36.000698
   -7.363616   36.010000
   -8.332946   36.009953
   -8.389826   35.957696
   -9.611253   35.984777
   -15.095056   30.031259
   -15.763853   29.735254
   -15.944811   29.700011
   -16.431088   29.700012
   -18.250806   30.457448
   -27.132649   36.009827
   -49.571969   36.010000
   -32.511822   60.391113
   -25.704347   63.324007
   -25.699988   65.375753
END
2
   31.952452   35.354631
   32.890517   35.661120
   34.740095   36.003217
   34.961457   35.673540
   34.439230   34.853000
   33.742937   34.396867
   31.991531   34.233752
   31.952452   35.354631
END
END
